<?xml version="1.0" standalone="no"?><!DOCTYPE svg PUBLIC "-//W3C//DTD SVG 1.1//EN" "http://www.w3.org/Graphics/SVG/1.1/DTD/svg11.dtd"><svg t="1644546864230" class="icon" viewBox="0 0 1024 1024" version="1.1" xmlns="http://www.w3.org/2000/svg" p-id="1544" xmlns:xlink="http://www.w3.org/1999/xlink" width="48" height="48"><defs><style type="text/css"></style></defs><path d="M511.9 72C269.7 72 72.6 269.1 72.6 511.3s197.1 439.3 439.3 439.3 439.3-197.1 439.3-439.3S754.2 72 511.9 72z m0 816.5c-208 0-377.2-169.2-377.2-377.2 0-86.8 29.6-166.8 79-230.6L768 787.8c-67.2 62.4-157.2 100.7-256.1 100.7z m298.2-146.6L255.7 234.8c67.3-62.4 157.4-100.7 256.2-100.7 208 0 377.2 169.2 377.2 377.2 0 86.8-29.5 166.8-79 230.6z" p-id="1545" fill="#e6e6e6"></path></svg>