<?xml version="1.0" standalone="no"?><!DOCTYPE svg PUBLIC "-//W3C//DTD SVG 1.1//EN" "http://www.w3.org/Graphics/SVG/1.1/DTD/svg11.dtd"><svg t="1637725220753" class="icon" viewBox="0 0 1024 1024" version="1.1" xmlns="http://www.w3.org/2000/svg" p-id="2017" xmlns:xlink="http://www.w3.org/1999/xlink" width="48" height="48"><defs><style type="text/css"></style></defs><path d="M79.862 736.941c0 6.249-5.285 11.311-11.81 11.311-6.505 0-11.785-5.062-11.785-11.311V323.086c0-6.25 5.28-11.305 11.785-11.305 6.525 0 11.81 5.056 11.81 11.305v413.855z" fill="#FDFBFB" p-id="2018"></path><path d="M862.273 512.928c0 194.624-157.781 352.4-352.398 352.4-194.629 0-352.389-157.776-352.389-352.4 0-194.623 157.76-352.383 352.389-352.383 194.617 0 352.398 157.76 352.398 352.383z" fill="#E25D27" p-id="2019"></path><path d="M557.982 61.253c0 33.133-18.336 59.993-40.934 59.993-22.609 0-40.928-26.86-40.928-59.993 0-33.132 18.319-59.992 40.928-59.992 22.598 0 40.934 26.861 40.934 59.992zM557.982 961.007c0 33.135-18.336 59.993-40.934 59.993-22.609 0-40.928-26.858-40.928-59.993 0-33.121 18.319-59.979 40.928-59.979 22.598-0.001 40.934 26.858 40.934 59.979z" fill="#E25D27" p-id="2020"></path><path d="M959.746 553.728c-33.122 0-59.992-18.324-59.992-40.928 0-22.599 26.87-40.94 59.992-40.94 33.131 0 59.987 18.342 59.987 40.94 0 22.603-26.856 40.928-59.987 40.928zM59.992 553.722C26.86 553.722 0 535.403 0 512.788c0-22.597 26.86-40.929 59.992-40.929 33.122 0 59.981 18.332 59.981 40.929 0.001 22.615-26.859 40.934-59.981 40.934z" fill="#E25D27" p-id="2021"></path><path d="M845.098 223.629c-23.438 23.427-55.389 29.453-71.372 13.475-15.984-15.995-9.946-47.941 13.481-71.368 23.426-23.426 55.382-29.464 71.36-13.475 15.984 15.985 9.941 47.935-13.469 71.368zM208.865 859.846c-23.427 23.438-55.372 29.464-71.361 13.479-15.979-15.988-9.958-47.928 13.48-71.36 23.421-23.428 55.372-29.458 71.361-13.475 15.984 15.989 9.947 47.935-13.48 71.356z" fill="#E25D27" p-id="2022"></path><path d="M166.844 217.077c23.427 23.426 55.373 29.463 71.362 13.485 15.989-15.994 9.958-47.94-13.469-71.361-23.427-23.433-55.384-29.47-71.367-13.48-15.99 15.983-9.947 47.924 13.474 71.356zM803.072 853.305c23.433 23.428 55.378 29.458 71.372 13.479 15.974-15.983 9.94-47.935-13.486-71.373-23.426-23.421-55.372-29.445-71.355-13.467-15.989 15.984-9.964 47.934 13.469 71.361z" fill="#E25D27" p-id="2023"></path><path d="M745.102 459.941c0 156.053-126.466 282.579-282.551 282.579-156.086 0-282.624-126.526-282.624-282.579 0-156.096 126.538-282.634 282.624-282.634 156.085 0.001 282.551 126.539 282.551 282.634z" fill="#ED6D41" p-id="2024"></path><path d="M419.191 341.189c0 15.025-12.176 27.195-27.19 27.195-15.026 0-27.202-12.17-27.202-27.195 0-15.021 12.176-27.196 27.202-27.196 15.015 0 27.19 12.176 27.19 27.196zM333.571 509.147c-4.2 10.567-16.158 15.715-26.721 11.516-10.54-4.201-15.686-16.164-11.509-26.715l34.432-86.504c4.212-10.546 16.174-15.704 26.72-11.504 10.557 4.201 15.709 16.163 11.509 26.708l-34.431 86.499z" fill="#FDFDFE" p-id="2025"></path><path d="M539.227 87.52c0 18.622-10.226 33.726-22.839 33.726-12.606 0-22.827-15.104-22.827-33.726 0-18.633 10.221-33.727 22.827-33.727 12.613 0 22.839 15.094 22.839 33.727zM539.227 934.753c0 18.633-10.226 33.726-22.839 33.726-12.606 0-22.827-15.093-22.827-33.726s10.221-33.726 22.827-33.726c12.613 0 22.839 15.093 22.839 33.726zM812.951 227.375c-13.329 13.016-31.273 16.252-40.076 7.22-8.821-9.029-5.159-26.894 8.176-39.893 13.329-13.016 31.289-16.253 40.088-7.225 8.81 9.023 5.146 26.895-8.188 39.898zM197.781 222.33c13.335 13.021 31.273 16.247 40.077 7.213 8.821-9.022 5.159-26.898-8.166-39.898-13.334-13.015-31.295-16.235-40.088-7.218-8.82 9.033-5.157 26.893 8.177 39.903zM830.072 788.636c-13.329-13.011-31.284-16.241-40.09-7.214-8.797 9.028-5.146 26.893 8.173 39.898 13.334 13.021 31.289 16.241 40.099 7.22 8.805-9.036 5.152-26.89-8.182-39.904zM180.453 794.314c13.324-13.017 31.285-16.252 40.083-7.226 8.821 9.027 5.158 26.895-8.171 39.909-13.329 13.012-31.295 16.236-40.089 7.22-8.809-9.031-5.157-26.905 8.177-39.903zM933.485 535.633c-18.616 0-33.731-10.22-33.731-22.845 0-12.602 15.115-22.839 33.731-22.839 18.632 0 33.737 10.237 33.737 22.839 0.001 12.625-15.105 22.845-33.737 22.845zM86.259 535.633c-18.622 0-33.727-10.22-33.727-22.845 0-12.602 15.105-22.839 33.727-22.839 18.621 0 33.726 10.237 33.726 22.839 0 12.625-15.105 22.845-33.726 22.845z" fill="#ED6D41" p-id="2026"></path></svg>