<?xml version="1.0" standalone="no"?><!DOCTYPE svg PUBLIC "-//W3C//DTD SVG 1.1//EN" "http://www.w3.org/Graphics/SVG/1.1/DTD/svg11.dtd"><svg t="1639102006913" class="icon" viewBox="0 0 1024 1024" version="1.1" xmlns="http://www.w3.org/2000/svg" p-id="3718" width="48" height="48" xmlns:xlink="http://www.w3.org/1999/xlink"><defs><style type="text/css"></style></defs><path d="M605.090909 400.290909m-269.963636 0a269.963636 269.963636 0 1 0 539.927272 0 269.963636 269.963636 0 1 0-539.927272 0Z" fill="#FFA448" p-id="3719"></path><path d="M605.090909 130.327273a268.9024 268.9024 0 0 1 175.383273 64.7168c59.336145 96.982109 28.299636 236.506764-77.0048 324.859345C601.088 605.807709 463.2576 614.185891 377.390545 545.391709A268.753455 268.753455 0 0 1 335.127273 400.290909C335.127273 251.196509 455.996509 130.327273 605.090909 130.327273z" fill="#FFBF40" p-id="3720"></path><path d="M605.090909 130.327273l2.420364 0.009309c24.352582 6.004364 45.614545 18.310982 61.365527 37.087418 51.6096 61.495855 24.594618 169.127564-60.332218 240.388655-84.936145 71.2704-195.611927 79.183127-247.221527 17.687272C348.066909 409.674473 339.995927 390.823564 336.765673 370.334255 351.669527 235.333818 466.115491 130.327273 605.090909 130.327273z" fill="#FFD44E" p-id="3721"></path><path d="M435.993426 208.818674a69.2224 83.065018 50 1 0 88.990602 106.05487 69.2224 83.065018 50 1 0-88.990602-106.05487Z" fill="#FFE174" p-id="3722"></path><path d="M383.953455 885.015273V691.665455l126.268509 0.009309c-0.111709-2.792727-0.167564-5.585455-0.167564-8.406109 0-111.429818 90.326109-201.755927 201.746618-201.755928 111.429818 0 201.755927 90.326109 201.755927 201.755928 0 102.884073-77.014109 187.782982-176.5376 200.192v1.554618H383.953455z" fill="#EEE1D4" p-id="3723"></path><path d="M383.953455 616.019782m-269.0048 0a269.0048 269.0048 0 1 0 538.0096 0 269.0048 269.0048 0 1 0-538.0096 0Z" fill="#FAEFE3" p-id="3724"></path></svg>